<?xml version='1.0' encoding='UTF-8' standalone='no'?>
<!-- Created with Fritzing (http://www.fritzing.org/) -->
<svg xmlns:svg='http://www.w3.org/2000/svg' xmlns='http://www.w3.org/2000/svg' version='1.2' baseProfile='tiny' x='0in' y='0in' width='3.69262in' height='5.51174in' viewBox='0 0 265.869 396.845' >
<g partID='64940'><g transform='translate(265.869,46.6229)' ><g transform='matrix(0,1,-1,0,0,0)'  ><g xmlns="http://www.w3.org/2000/svg" id="breadboardbreadboard">
 <path xmlns="http://www.w3.org/2000/svg" fill-opacity="1" stroke="none" id="boardoutline" fill="#deb675" stroke-width="0" d="M0,0L64.8,0,64.8,64.8,0,64.8zM5.94,7.2a1.26,1.26,0,1,0,2.52,0,1.26,1.26,0,1,0,-2.52,0zM13.14,7.2a1.26,1.26,0,1,0,2.52,0,1.26,1.26,0,1,0,-2.52,0zM20.34,7.2a1.26,1.26,0,1,0,2.52,0,1.26,1.26,0,1,0,-2.52,0zM27.54,7.2a1.26,1.26,0,1,0,2.52,0,1.26,1.26,0,1,0,-2.52,0zM34.74,7.2a1.26,1.26,0,1,0,2.52,0,1.26,1.26,0,1,0,-2.52,0zM41.94,7.2a1.26,1.26,0,1,0,2.52,0,1.26,1.26,0,1,0,-2.52,0zM49.14,7.2a1.26,1.26,0,1,0,2.52,0,1.26,1.26,0,1,0,-2.52,0zM56.34,7.2a1.26,1.26,0,1,0,2.52,0,1.26,1.26,0,1,0,-2.52,0zM5.94,14.4a1.26,1.26,0,1,0,2.52,0,1.26,1.26,0,1,0,-2.52,0zM13.14,14.4a1.26,1.26,0,1,0,2.52,0,1.26,1.26,0,1,0,-2.52,0zM20.34,14.4a1.26,1.26,0,1,0,2.52,0,1.26,1.26,0,1,0,-2.52,0zM27.54,14.4a1.26,1.26,0,1,0,2.52,0,1.26,1.26,0,1,0,-2.52,0zM34.74,14.4a1.26,1.26,0,1,0,2.52,0,1.26,1.26,0,1,0,-2.52,0zM41.94,14.4a1.26,1.26,0,1,0,2.52,0,1.26,1.26,0,1,0,-2.52,0zM49.14,14.4a1.26,1.26,0,1,0,2.52,0,1.26,1.26,0,1,0,-2.52,0zM56.34,14.4a1.26,1.26,0,1,0,2.52,0,1.26,1.26,0,1,0,-2.52,0zM5.94,21.6a1.26,1.26,0,1,0,2.52,0,1.26,1.26,0,1,0,-2.52,0zM13.14,21.6a1.26,1.26,0,1,0,2.52,0,1.26,1.26,0,1,0,-2.52,0zM20.34,21.6a1.26,1.26,0,1,0,2.52,0,1.26,1.26,0,1,0,-2.52,0zM27.54,21.6a1.26,1.26,0,1,0,2.52,0,1.26,1.26,0,1,0,-2.52,0zM34.74,21.6a1.26,1.26,0,1,0,2.52,0,1.26,1.26,0,1,0,-2.52,0zM41.94,21.6a1.26,1.26,0,1,0,2.52,0,1.26,1.26,0,1,0,-2.52,0zM49.14,21.6a1.26,1.26,0,1,0,2.52,0,1.26,1.26,0,1,0,-2.52,0zM56.34,21.6a1.26,1.26,0,1,0,2.52,0,1.26,1.26,0,1,0,-2.52,0zM5.94,28.8a1.26,1.26,0,1,0,2.52,0,1.26,1.26,0,1,0,-2.52,0zM13.14,28.8a1.26,1.26,0,1,0,2.52,0,1.26,1.26,0,1,0,-2.52,0zM20.34,28.8a1.26,1.26,0,1,0,2.52,0,1.26,1.26,0,1,0,-2.52,0zM27.54,28.8a1.26,1.26,0,1,0,2.52,0,1.26,1.26,0,1,0,-2.52,0zM34.74,28.8a1.26,1.26,0,1,0,2.52,0,1.26,1.26,0,1,0,-2.52,0zM41.94,28.8a1.26,1.26,0,1,0,2.52,0,1.26,1.26,0,1,0,-2.52,0zM49.14,28.8a1.26,1.26,0,1,0,2.52,0,1.26,1.26,0,1,0,-2.52,0zM56.34,28.8a1.26,1.26,0,1,0,2.52,0,1.26,1.26,0,1,0,-2.52,0zM5.94,36a1.26,1.26,0,1,0,2.52,0,1.26,1.26,0,1,0,-2.52,0zM13.14,36a1.26,1.26,0,1,0,2.52,0,1.26,1.26,0,1,0,-2.52,0zM20.34,36a1.26,1.26,0,1,0,2.52,0,1.26,1.26,0,1,0,-2.52,0zM27.54,36a1.26,1.26,0,1,0,2.52,0,1.26,1.26,0,1,0,-2.52,0zM34.74,36a1.26,1.26,0,1,0,2.52,0,1.26,1.26,0,1,0,-2.52,0zM41.94,36a1.26,1.26,0,1,0,2.52,0,1.26,1.26,0,1,0,-2.52,0zM49.14,36a1.26,1.26,0,1,0,2.52,0,1.26,1.26,0,1,0,-2.52,0zM56.34,36a1.26,1.26,0,1,0,2.52,0,1.26,1.26,0,1,0,-2.52,0zM5.94,43.2a1.26,1.26,0,1,0,2.52,0,1.26,1.26,0,1,0,-2.52,0zM13.14,43.2a1.26,1.26,0,1,0,2.52,0,1.26,1.26,0,1,0,-2.52,0zM20.34,43.2a1.26,1.26,0,1,0,2.52,0,1.26,1.26,0,1,0,-2.52,0zM27.54,43.2a1.26,1.26,0,1,0,2.52,0,1.26,1.26,0,1,0,-2.52,0zM34.74,43.2a1.26,1.26,0,1,0,2.52,0,1.26,1.26,0,1,0,-2.52,0zM41.94,43.2a1.26,1.26,0,1,0,2.52,0,1.26,1.26,0,1,0,-2.52,0zM49.14,43.2a1.26,1.26,0,1,0,2.52,0,1.26,1.26,0,1,0,-2.52,0zM56.34,43.2a1.26,1.26,0,1,0,2.52,0,1.26,1.26,0,1,0,-2.52,0zM5.94,50.4a1.26,1.26,0,1,0,2.52,0,1.26,1.26,0,1,0,-2.52,0zM13.14,50.4a1.26,1.26,0,1,0,2.52,0,1.26,1.26,0,1,0,-2.52,0zM20.34,50.4a1.26,1.26,0,1,0,2.52,0,1.26,1.26,0,1,0,-2.52,0zM27.54,50.4a1.26,1.26,0,1,0,2.52,0,1.26,1.26,0,1,0,-2.52,0zM34.74,50.4a1.26,1.26,0,1,0,2.52,0,1.26,1.26,0,1,0,-2.52,0zM41.94,50.4a1.26,1.26,0,1,0,2.52,0,1.26,1.26,0,1,0,-2.52,0zM49.14,50.4a1.26,1.26,0,1,0,2.52,0,1.26,1.26,0,1,0,-2.52,0zM56.34,50.4a1.26,1.26,0,1,0,2.52,0,1.26,1.26,0,1,0,-2.52,0zM5.94,57.6a1.26,1.26,0,1,0,2.52,0,1.26,1.26,0,1,0,-2.52,0zM13.14,57.6a1.26,1.26,0,1,0,2.52,0,1.26,1.26,0,1,0,-2.52,0zM20.34,57.6a1.26,1.26,0,1,0,2.52,0,1.26,1.26,0,1,0,-2.52,0zM27.54,57.6a1.26,1.26,0,1,0,2.52,0,1.26,1.26,0,1,0,-2.52,0zM34.74,57.6a1.26,1.26,0,1,0,2.52,0,1.26,1.26,0,1,0,-2.52,0zM41.94,57.6a1.26,1.26,0,1,0,2.52,0,1.26,1.26,0,1,0,-2.52,0zM49.14,57.6a1.26,1.26,0,1,0,2.52,0,1.26,1.26,0,1,0,-2.52,0zM56.34,57.6a1.26,1.26,0,1,0,2.52,0,1.26,1.26,0,1,0,-2.52,0z"/>
 <path xmlns="http://www.w3.org/2000/svg" stroke="#deb675" fill="none" stroke-width="0.576" d="M0.288,0.288L64.224,0.288,64.224,64.224,0.288,64.224z" stroke-opacity="1"/>
 <circle xmlns="http://www.w3.org/2000/svg" connectorname="0.0" stroke="#c49c59" r="1.98" id="connector0pin" cx="7.2" fill="none" cy="7.2" stroke-width="1.44"/>
 <circle xmlns="http://www.w3.org/2000/svg" connectorname="1.0" stroke="#c49c59" r="1.98" id="connector1pin" cx="14.4" fill="none" cy="7.2" stroke-width="1.44"/>
 <circle xmlns="http://www.w3.org/2000/svg" connectorname="2.0" stroke="#c49c59" r="1.98" id="connector2pin" cx="21.6" fill="none" cy="7.2" stroke-width="1.44"/>
 <circle xmlns="http://www.w3.org/2000/svg" connectorname="3.0" stroke="#c49c59" r="1.98" id="connector3pin" cx="28.8" fill="none" cy="7.2" stroke-width="1.44"/>
 <circle xmlns="http://www.w3.org/2000/svg" connectorname="4.0" stroke="#c49c59" r="1.98" id="connector4pin" cx="36" fill="none" cy="7.2" stroke-width="1.44"/>
 <circle xmlns="http://www.w3.org/2000/svg" connectorname="5.0" stroke="#c49c59" r="1.98" id="connector5pin" cx="43.2" fill="none" cy="7.2" stroke-width="1.44"/>
 <circle xmlns="http://www.w3.org/2000/svg" connectorname="6.0" stroke="#c49c59" r="1.98" id="connector6pin" cx="50.4" fill="none" cy="7.2" stroke-width="1.44"/>
 <circle xmlns="http://www.w3.org/2000/svg" connectorname="7.0" stroke="#c49c59" r="1.98" id="connector7pin" cx="57.6" fill="none" cy="7.2" stroke-width="1.44"/>
 <circle xmlns="http://www.w3.org/2000/svg" connectorname="0.1" stroke="#c49c59" r="1.98" id="connector1000pin" cx="7.2" fill="none" cy="14.4" stroke-width="1.44"/>
 <circle xmlns="http://www.w3.org/2000/svg" connectorname="1.1" stroke="#c49c59" r="1.98" id="connector1001pin" cx="14.4" fill="none" cy="14.4" stroke-width="1.44"/>
 <circle xmlns="http://www.w3.org/2000/svg" connectorname="2.1" stroke="#c49c59" r="1.98" id="connector1002pin" cx="21.6" fill="none" cy="14.4" stroke-width="1.44"/>
 <circle xmlns="http://www.w3.org/2000/svg" connectorname="3.1" stroke="#c49c59" r="1.98" id="connector1003pin" cx="28.8" fill="none" cy="14.4" stroke-width="1.44"/>
 <circle xmlns="http://www.w3.org/2000/svg" connectorname="4.1" stroke="#c49c59" r="1.98" id="connector1004pin" cx="36" fill="none" cy="14.4" stroke-width="1.44"/>
 <circle xmlns="http://www.w3.org/2000/svg" connectorname="5.1" stroke="#c49c59" r="1.98" id="connector1005pin" cx="43.2" fill="none" cy="14.4" stroke-width="1.44"/>
 <circle xmlns="http://www.w3.org/2000/svg" connectorname="6.1" stroke="#c49c59" r="1.98" id="connector1006pin" cx="50.4" fill="none" cy="14.4" stroke-width="1.44"/>
 <circle xmlns="http://www.w3.org/2000/svg" connectorname="7.1" stroke="#c49c59" r="1.98" id="connector1007pin" cx="57.6" fill="none" cy="14.4" stroke-width="1.44"/>
 <circle xmlns="http://www.w3.org/2000/svg" connectorname="0.2" stroke="#c49c59" r="1.98" id="connector2000pin" cx="7.2" fill="none" cy="21.6" stroke-width="1.44"/>
 <circle xmlns="http://www.w3.org/2000/svg" connectorname="1.2" stroke="#c49c59" r="1.98" id="connector2001pin" cx="14.4" fill="none" cy="21.6" stroke-width="1.44"/>
 <circle xmlns="http://www.w3.org/2000/svg" connectorname="2.2" stroke="#c49c59" r="1.98" id="connector2002pin" cx="21.6" fill="none" cy="21.6" stroke-width="1.44"/>
 <circle xmlns="http://www.w3.org/2000/svg" connectorname="3.2" stroke="#c49c59" r="1.98" id="connector2003pin" cx="28.8" fill="none" cy="21.6" stroke-width="1.44"/>
 <circle xmlns="http://www.w3.org/2000/svg" connectorname="4.2" stroke="#c49c59" r="1.98" id="connector2004pin" cx="36" fill="none" cy="21.6" stroke-width="1.44"/>
 <circle xmlns="http://www.w3.org/2000/svg" connectorname="5.2" stroke="#c49c59" r="1.98" id="connector2005pin" cx="43.2" fill="none" cy="21.6" stroke-width="1.44"/>
 <circle xmlns="http://www.w3.org/2000/svg" connectorname="6.2" stroke="#c49c59" r="1.98" id="connector2006pin" cx="50.4" fill="none" cy="21.6" stroke-width="1.44"/>
 <circle xmlns="http://www.w3.org/2000/svg" connectorname="7.2" stroke="#c49c59" r="1.98" id="connector2007pin" cx="57.6" fill="none" cy="21.6" stroke-width="1.44"/>
 <circle xmlns="http://www.w3.org/2000/svg" connectorname="0.3" stroke="#c49c59" r="1.98" id="connector3000pin" cx="7.2" fill="none" cy="28.8" stroke-width="1.44"/>
 <circle xmlns="http://www.w3.org/2000/svg" connectorname="1.3" stroke="#c49c59" r="1.98" id="connector3001pin" cx="14.4" fill="none" cy="28.8" stroke-width="1.44"/>
 <circle xmlns="http://www.w3.org/2000/svg" connectorname="2.3" stroke="#c49c59" r="1.98" id="connector3002pin" cx="21.6" fill="none" cy="28.8" stroke-width="1.44"/>
 <circle xmlns="http://www.w3.org/2000/svg" connectorname="3.3" stroke="#c49c59" r="1.98" id="connector3003pin" cx="28.8" fill="none" cy="28.8" stroke-width="1.44"/>
 <circle xmlns="http://www.w3.org/2000/svg" connectorname="4.3" stroke="#c49c59" r="1.98" id="connector3004pin" cx="36" fill="none" cy="28.8" stroke-width="1.44"/>
 <circle xmlns="http://www.w3.org/2000/svg" connectorname="5.3" stroke="#c49c59" r="1.98" id="connector3005pin" cx="43.2" fill="none" cy="28.8" stroke-width="1.44"/>
 <circle xmlns="http://www.w3.org/2000/svg" connectorname="6.3" stroke="#c49c59" r="1.98" id="connector3006pin" cx="50.4" fill="none" cy="28.8" stroke-width="1.44"/>
 <circle xmlns="http://www.w3.org/2000/svg" connectorname="7.3" stroke="#c49c59" r="1.98" id="connector3007pin" cx="57.6" fill="none" cy="28.8" stroke-width="1.44"/>
 <circle xmlns="http://www.w3.org/2000/svg" connectorname="0.4" stroke="#c49c59" r="1.98" id="connector4000pin" cx="7.2" fill="none" cy="36" stroke-width="1.44"/>
 <circle xmlns="http://www.w3.org/2000/svg" connectorname="1.4" stroke="#c49c59" r="1.98" id="connector4001pin" cx="14.4" fill="none" cy="36" stroke-width="1.44"/>
 <circle xmlns="http://www.w3.org/2000/svg" connectorname="2.4" stroke="#c49c59" r="1.98" id="connector4002pin" cx="21.6" fill="none" cy="36" stroke-width="1.44"/>
 <circle xmlns="http://www.w3.org/2000/svg" connectorname="3.4" stroke="#c49c59" r="1.98" id="connector4003pin" cx="28.8" fill="none" cy="36" stroke-width="1.44"/>
 <circle xmlns="http://www.w3.org/2000/svg" connectorname="4.4" stroke="#c49c59" r="1.98" id="connector4004pin" cx="36" fill="none" cy="36" stroke-width="1.44"/>
 <circle xmlns="http://www.w3.org/2000/svg" connectorname="5.4" stroke="#c49c59" r="1.98" id="connector4005pin" cx="43.2" fill="none" cy="36" stroke-width="1.44"/>
 <circle xmlns="http://www.w3.org/2000/svg" connectorname="6.4" stroke="#c49c59" r="1.98" id="connector4006pin" cx="50.4" fill="none" cy="36" stroke-width="1.44"/>
 <circle xmlns="http://www.w3.org/2000/svg" connectorname="7.4" stroke="#c49c59" r="1.98" id="connector4007pin" cx="57.6" fill="none" cy="36" stroke-width="1.44"/>
 <circle xmlns="http://www.w3.org/2000/svg" connectorname="0.5" stroke="#c49c59" r="1.98" id="connector5000pin" cx="7.2" fill="none" cy="43.2" stroke-width="1.44"/>
 <circle xmlns="http://www.w3.org/2000/svg" connectorname="1.5" stroke="#c49c59" r="1.98" id="connector5001pin" cx="14.4" fill="none" cy="43.2" stroke-width="1.44"/>
 <circle xmlns="http://www.w3.org/2000/svg" connectorname="2.5" stroke="#c49c59" r="1.98" id="connector5002pin" cx="21.6" fill="none" cy="43.2" stroke-width="1.44"/>
 <circle xmlns="http://www.w3.org/2000/svg" connectorname="3.5" stroke="#c49c59" r="1.98" id="connector5003pin" cx="28.8" fill="none" cy="43.2" stroke-width="1.44"/>
 <circle xmlns="http://www.w3.org/2000/svg" connectorname="4.5" stroke="#c49c59" r="1.98" id="connector5004pin" cx="36" fill="none" cy="43.2" stroke-width="1.44"/>
 <circle xmlns="http://www.w3.org/2000/svg" connectorname="5.5" stroke="#c49c59" r="1.98" id="connector5005pin" cx="43.2" fill="none" cy="43.2" stroke-width="1.44"/>
 <circle xmlns="http://www.w3.org/2000/svg" connectorname="6.5" stroke="#c49c59" r="1.98" id="connector5006pin" cx="50.4" fill="none" cy="43.2" stroke-width="1.44"/>
 <circle xmlns="http://www.w3.org/2000/svg" connectorname="7.5" stroke="#c49c59" r="1.98" id="connector5007pin" cx="57.6" fill="none" cy="43.2" stroke-width="1.44"/>
 <circle xmlns="http://www.w3.org/2000/svg" connectorname="0.6" stroke="#c49c59" r="1.98" id="connector6000pin" cx="7.2" fill="none" cy="50.4" stroke-width="1.44"/>
 <circle xmlns="http://www.w3.org/2000/svg" connectorname="1.6" stroke="#c49c59" r="1.98" id="connector6001pin" cx="14.4" fill="none" cy="50.4" stroke-width="1.44"/>
 <circle xmlns="http://www.w3.org/2000/svg" connectorname="2.6" stroke="#c49c59" r="1.98" id="connector6002pin" cx="21.6" fill="none" cy="50.4" stroke-width="1.44"/>
 <circle xmlns="http://www.w3.org/2000/svg" connectorname="3.6" stroke="#c49c59" r="1.98" id="connector6003pin" cx="28.8" fill="none" cy="50.4" stroke-width="1.44"/>
 <circle xmlns="http://www.w3.org/2000/svg" connectorname="4.6" stroke="#c49c59" r="1.98" id="connector6004pin" cx="36" fill="none" cy="50.4" stroke-width="1.44"/>
 <circle xmlns="http://www.w3.org/2000/svg" connectorname="5.6" stroke="#c49c59" r="1.98" id="connector6005pin" cx="43.2" fill="none" cy="50.4" stroke-width="1.44"/>
 <circle xmlns="http://www.w3.org/2000/svg" connectorname="6.6" stroke="#c49c59" r="1.98" id="connector6006pin" cx="50.4" fill="none" cy="50.4" stroke-width="1.44"/>
 <circle xmlns="http://www.w3.org/2000/svg" connectorname="7.6" stroke="#c49c59" r="1.98" id="connector6007pin" cx="57.6" fill="none" cy="50.4" stroke-width="1.44"/>
 <circle xmlns="http://www.w3.org/2000/svg" connectorname="0.7" stroke="#c49c59" r="1.98" id="connector7000pin" cx="7.2" fill="none" cy="57.6" stroke-width="1.44"/>
 <circle xmlns="http://www.w3.org/2000/svg" connectorname="1.7" stroke="#c49c59" r="1.98" id="connector7001pin" cx="14.4" fill="none" cy="57.6" stroke-width="1.44"/>
 <circle xmlns="http://www.w3.org/2000/svg" connectorname="2.7" stroke="#c49c59" r="1.98" id="connector7002pin" cx="21.6" fill="none" cy="57.6" stroke-width="1.44"/>
 <circle xmlns="http://www.w3.org/2000/svg" connectorname="3.7" stroke="#c49c59" r="1.98" id="connector7003pin" cx="28.8" fill="none" cy="57.6" stroke-width="1.44"/>
 <circle xmlns="http://www.w3.org/2000/svg" connectorname="4.7" stroke="#c49c59" r="1.98" id="connector7004pin" cx="36" fill="none" cy="57.6" stroke-width="1.44"/>
 <circle xmlns="http://www.w3.org/2000/svg" connectorname="5.7" stroke="#c49c59" r="1.98" id="connector7005pin" cx="43.2" fill="none" cy="57.6" stroke-width="1.44"/>
 <circle xmlns="http://www.w3.org/2000/svg" connectorname="6.7" stroke="#c49c59" r="1.98" id="connector7006pin" cx="50.4" fill="none" cy="57.6" stroke-width="1.44"/>
 <circle xmlns="http://www.w3.org/2000/svg" connectorname="7.7" stroke="#c49c59" r="1.98" id="connector7007pin" cx="57.6" fill="none" cy="57.6" stroke-width="1.44"/>
</g>
</g></g></g><g partID='62310'><g transform='translate(211.868,86.2253)' ><g transform='matrix(0,1,-1,0,0,0)'  ><g id="breadboard" xmlns="http://www.w3.org/2000/svg">
<rect xmlns="http://www.w3.org/2000/svg" fill="#404040" width="21.6" height="7.2"/>
<rect id="connector0pin" x="2.20843" xmlns="http://www.w3.org/2000/svg" fill="none" width="2.78312" y="2.20843" height="2.78312"/>
<g id="connector0terminal" x="2.51834" xmlns="http://www.w3.org/2000/svg" fill="none" width="2.15829" y="2.47054" height="2.25658"/>
<rect x="2.20843" xmlns="http://www.w3.org/2000/svg" width="2.78312" y="2.20843" height="2.78312"/>
<polygon xmlns="http://www.w3.org/2000/svg" fill="#2A2A29" points="1.18445,1.18445,2.20843,2.20843,4.99156,2.20843,6.01654,1.18445"/>
<polygon xmlns="http://www.w3.org/2000/svg" fill="#474747" points="6.01654,1.18445,4.99156,2.20843,4.99156,4.99156,6.01654,6.01654"/>
<polygon xmlns="http://www.w3.org/2000/svg" fill="#595959" points="6.01654,6.01654,4.99156,4.99156,2.20843,4.99156,1.18445,6.01654"/>
<polygon xmlns="http://www.w3.org/2000/svg" fill="#373737" points="1.18445,6.01654,2.20843,4.99156,2.20843,2.20843,1.18445,1.18445"/>
<rect id="connector1pin" x="9.40846" xmlns="http://www.w3.org/2000/svg" fill="none" width="2.78312" y="2.20843" height="2.78312"/>
<g id="connector1terminal" x="9.71834" xmlns="http://www.w3.org/2000/svg" fill="none" width="2.15829" y="2.47054" height="2.25658"/>
<rect x="9.40846" xmlns="http://www.w3.org/2000/svg" width="2.78312" y="2.20843" height="2.78312"/>
<polygon xmlns="http://www.w3.org/2000/svg" fill="#2A2A29" points="8.38447,1.18445,9.40846,2.20843,12.1915,2.20843,13.2165,1.18445"/>
<polygon xmlns="http://www.w3.org/2000/svg" fill="#474747" points="13.2165,1.18445,12.1915,2.20843,12.1915,4.99156,13.2165,6.01654"/>
<polygon xmlns="http://www.w3.org/2000/svg" fill="#595959" points="13.2165,6.01654,12.1915,4.99156,9.40846,4.99156,8.38447,6.01654"/>
<polygon xmlns="http://www.w3.org/2000/svg" fill="#373737" points="8.38447,6.01654,9.40846,4.99156,9.40846,2.20843,8.38447,1.18445"/>
<rect id="connector2pin" x="16.6085" xmlns="http://www.w3.org/2000/svg" fill="none" width="2.78312" y="2.20843" height="2.78312"/>
<g id="connector2terminal" x="16.9183" xmlns="http://www.w3.org/2000/svg" fill="none" width="2.15829" y="2.47054" height="2.25658"/>
<rect x="16.6085" xmlns="http://www.w3.org/2000/svg" width="2.78312" y="2.20843" height="2.78312"/>
<polygon xmlns="http://www.w3.org/2000/svg" fill="#2A2A29" points="15.5845,1.18445,16.6085,2.20843,19.3915,2.20843,20.4165,1.18445"/>
<polygon xmlns="http://www.w3.org/2000/svg" fill="#474747" points="20.4165,1.18445,19.3915,2.20843,19.3915,4.99156,20.4165,6.01654"/>
<polygon xmlns="http://www.w3.org/2000/svg" fill="#595959" points="20.4165,6.01654,19.3915,4.99156,16.6085,4.99156,15.5845,6.01654"/>
<polygon xmlns="http://www.w3.org/2000/svg" fill="#373737" points="15.5845,6.01654,16.6085,4.99156,16.6085,2.20843,15.5845,1.18445"/>
</g>
</g></g></g><path stroke='#8c8c8c' stroke-width='2.0952' stroke-linecap='round' stroke-linejoin='round' fill='none' d='M222.669,95.9799L222.669,97.0275' />
<path stroke='#8c8c8c' stroke-width='2.0952' stroke-linecap='round' stroke-linejoin='round' fill='none' d='M222.669,69.2701L222.669,68.2225' />
<g partID='62330'><g transform='translate(226.301,67.1749)' ><g transform='matrix(0,1,-1,0,0,0)'  ><g xmlns="http://www.w3.org/2000/svg" id="breadboard">
 <rect xmlns="http://www.w3.org/2000/svg" id="connector0pin" x="0.36" fill="none" width="0.72" y="2.5848" height="0.72"/>
 <rect xmlns="http://www.w3.org/2000/svg" id="connector1pin" x="29.8202" fill="none" width="0.72" y="2.5848" height="0.72"/>
 <line xmlns="http://www.w3.org/2000/svg" stroke="#8C8C8C" id="connector0leg" x1="1.0476" x2="2.0952" y1="3.6324" stroke-linecap="round" fill="none" stroke-width="2.0952" y2="3.6324"/>
 <line xmlns="http://www.w3.org/2000/svg" stroke="#8C8C8C" id="connector1leg" x1="29.8526" x2="28.805" y1="3.6324" stroke-linecap="round" fill="none" stroke-width="2.0952" y2="3.6324"/>
 <path xmlns="http://www.w3.org/2000/svg" stroke="#8C8C8C" fill="none" stroke-width="2.0952" d="M1.0476,3.6324l28.3666,0"/>
 <path xmlns="http://www.w3.org/2000/svg" id="body" fill="#D9B477" d="M10.2478,0.49536c-0.36,-0.1656,-0.9792,-0.2952,-1.3752,-0.2952l-1.9872,0c-0.396,0,-0.72,0.324,-0.72,0.72l0,5.35608c0,0.39672,0.324,0.72,0.72,0.72l1.9872,0c0.396,0,1.0152,-0.13608,1.3752,-0.2952l0.072,-0.03528c0.36,-0.1656,0.9792,-0.2952,1.3752,-0.2952l7.1856,0c0.39672,0,1.01448,0.13608,1.37448,0.2952l0.07272,0.03528c0.36,0.1656,0.97776,0.2952,1.3752,0.2952l1.9872,0c0.39744,0,0.72,-0.32328,0.72,-0.72L24.4102,0.92016c0,-0.396,-0.32256,-0.72,-0.72,-0.72l-1.9872,0c-0.39744,0,-1.0152,0.1368,-1.3752,0.2952l-0.07272,0.036c-0.36,0.1656,-0.97776,0.2952,-1.37448,0.2952l-7.1856,0c-0.396,0,-1.0152,-0.1368,-1.3752,-0.2952L10.2478,0.49536z"/>
 <rect xmlns="http://www.w3.org/2000/svg" id="gold_band" x="22.019" fill="#ad9f4e" width="0.70272" y="0.19368" height="6.79536"/>
 <rect xmlns="http://www.w3.org/2000/svg" id="band_rd_multiplier" x="16.1726" fill="#8a3d06" width="1.8504" y="0.82656" height="5.5368"/>
 <rect xmlns="http://www.w3.org/2000/svg" id="band_2_nd" x="12.4726" fill="#00a33d" width="1.8504" y="0.82656" height="5.5368"/>
 <path xmlns="http://www.w3.org/2000/svg" id="band_1_st" fill="#8a3d06" d="M10.6286,0.63936c-0.1152,-0.036,-0.2232,-0.072,-0.3096,-0.1152l-0.072,-0.036c-0.36,-0.16488,-0.9792,-0.2952,-1.3752,-0.2952l-0.0864,0l0,6.79608l0.0864,0c0.396,0,1.0152,-0.13608,1.3752,-0.2952l0.072,-0.03528c0.0864,-0.04464,0.1944,-0.07992,0.3096,-0.1152L10.6286,0.63936z"/>
 <path xmlns="http://www.w3.org/2000/svg" opacity="0.3" id="Shadow" d="M23.711,4.0896L23.711,4.0896c0,0.37944,-0.13032,0.69912,-0.2952,0.69912l-1.9224,0c-0.38016,0,-0.97776,-0.05616,-1.33272,-0.1224L20.088,4.65048c-0.34488,-0.0648,-0.94896,-0.1224,-1.33344,-0.1224L11.808,4.52808c-0.3816,0,-0.9792,0.0576,-1.332,0.1224l-0.072,0.01512c-0.3456,0.06552,-0.9432,0.1224,-1.332,0.1224l-0.3168,0l-1.0008,0l-0.3096,0c-0.3816,0,-0.6984,0.29376,-0.6984,0.64512l0,0.24696L6.7464,5.8392l0,0.1728c0,0.36,0.3168,0.64512,0.6984,0.64512l1.62,0c0.3816,0,0.9792,-0.1224,1.332,-0.26712l0.072,-0.02808c0.3456,-0.14112,0.9504,-0.26496,1.332,-0.26496l6.94656,0c0.37944,0,0.97704,0.12384,1.33416,0.26568l0.07416,0.02808c0.34488,0.14472,0.94464,0.26712,1.33344,0.26712l2.2248,0c0.38088,0,0.69912,-0.2952,0.69912,-0.64512L24.413,5.472L24.413,4.49928L24.413,2.65536C24.1358,2.76336,23.711,3.06576,23.711,4.0896z"/>
 <rect xmlns="http://www.w3.org/2000/svg" opacity="0.4" id="ShadowExtra" x="22.019" width="0.70272" y="3.48336" height="3.15288"/>
 <path xmlns="http://www.w3.org/2000/svg" opacity="0.25" id="ReflexRight" fill="#FFFFFF" d="M19.751,1.08576c0.22968,0,0.49104,-0.1008,0.6624,-0.1728c0.2016,-0.0792,0.57672,-0.144,0.96624,-0.144l1.46088,0c0.22464,0,0.22464,0.2448,0.22464,0.3744c0,0.1296,-0.01512,0.3816,-0.22464,0.3816l-3.06,0c-0.10728,0,-0.2304,-0.1152,-0.2304,-0.22392C19.5566,1.21536,19.6286,1.08576,19.751,1.08576z"/>
 <circle xmlns="http://www.w3.org/2000/svg" opacity="0.35" r="0.432" id="ReflexLeft" cx="6.99984" fill="#FFFFFF" cy="1.13616"/>
 <rect xmlns="http://www.w3.org/2000/svg" opacity="0.5" id="Reflex_gold" x="22.019" fill="#FFFF33" width="0.70272" y="0.42336" height="1.62"/>
 <rect xmlns="http://www.w3.org/2000/svg" opacity="0.5" id="Reflex_extra" x="22.019" fill="#FFFFFF" width="0.70272" y="0.78336" height="0.7488"/>
</g>
</g></g></g><path stroke='#8c8c8c' stroke-width='2.0952' stroke-linecap='round' stroke-linejoin='round' fill='none' d='M258.669,95.9799L258.669,97.0275' />
<path stroke='#8c8c8c' stroke-width='2.0952' stroke-linecap='round' stroke-linejoin='round' fill='none' d='M258.669,69.2701L258.669,68.2225' />
<g partID='62860'><g transform='translate(262.301,67.1749)' ><g transform='matrix(0,1,-1,0,0,0)'  ><g xmlns="http://www.w3.org/2000/svg" id="breadboard">
 <rect xmlns="http://www.w3.org/2000/svg" id="connector0pin" x="0.36" fill="none" width="0.72" y="2.5848" height="0.72"/>
 <rect xmlns="http://www.w3.org/2000/svg" id="connector1pin" x="29.8202" fill="none" width="0.72" y="2.5848" height="0.72"/>
 <line xmlns="http://www.w3.org/2000/svg" stroke="#8C8C8C" id="connector0leg" x1="1.0476" x2="2.0952" y1="3.6324" stroke-linecap="round" fill="none" stroke-width="2.0952" y2="3.6324"/>
 <line xmlns="http://www.w3.org/2000/svg" stroke="#8C8C8C" id="connector1leg" x1="29.8526" x2="28.805" y1="3.6324" stroke-linecap="round" fill="none" stroke-width="2.0952" y2="3.6324"/>
 <path xmlns="http://www.w3.org/2000/svg" stroke="#8C8C8C" fill="none" stroke-width="2.0952" d="M1.0476,3.6324l28.3666,0"/>
 <path xmlns="http://www.w3.org/2000/svg" id="body" fill="#D9B477" d="M10.2478,0.49536c-0.36,-0.1656,-0.9792,-0.2952,-1.3752,-0.2952l-1.9872,0c-0.396,0,-0.72,0.324,-0.72,0.72l0,5.35608c0,0.39672,0.324,0.72,0.72,0.72l1.9872,0c0.396,0,1.0152,-0.13608,1.3752,-0.2952l0.072,-0.03528c0.36,-0.1656,0.9792,-0.2952,1.3752,-0.2952l7.1856,0c0.39672,0,1.01448,0.13608,1.37448,0.2952l0.07272,0.03528c0.36,0.1656,0.97776,0.2952,1.3752,0.2952l1.9872,0c0.39744,0,0.72,-0.32328,0.72,-0.72L24.4102,0.92016c0,-0.396,-0.32256,-0.72,-0.72,-0.72l-1.9872,0c-0.39744,0,-1.0152,0.1368,-1.3752,0.2952l-0.07272,0.036c-0.36,0.1656,-0.97776,0.2952,-1.37448,0.2952l-7.1856,0c-0.396,0,-1.0152,-0.1368,-1.3752,-0.2952L10.2478,0.49536z"/>
 <rect xmlns="http://www.w3.org/2000/svg" id="gold_band" x="22.019" fill="#ad9f4e" width="0.70272" y="0.19368" height="6.79536"/>
 <rect xmlns="http://www.w3.org/2000/svg" id="band_rd_multiplier" x="16.1726" fill="#8a3d06" width="1.8504" y="0.82656" height="5.5368"/>
 <rect xmlns="http://www.w3.org/2000/svg" id="band_2_nd" x="12.4726" fill="#00a33d" width="1.8504" y="0.82656" height="5.5368"/>
 <path xmlns="http://www.w3.org/2000/svg" id="band_1_st" fill="#8a3d06" d="M10.6286,0.63936c-0.1152,-0.036,-0.2232,-0.072,-0.3096,-0.1152l-0.072,-0.036c-0.36,-0.16488,-0.9792,-0.2952,-1.3752,-0.2952l-0.0864,0l0,6.79608l0.0864,0c0.396,0,1.0152,-0.13608,1.3752,-0.2952l0.072,-0.03528c0.0864,-0.04464,0.1944,-0.07992,0.3096,-0.1152L10.6286,0.63936z"/>
 <path xmlns="http://www.w3.org/2000/svg" opacity="0.3" id="Shadow" d="M23.711,4.0896L23.711,4.0896c0,0.37944,-0.13032,0.69912,-0.2952,0.69912l-1.9224,0c-0.38016,0,-0.97776,-0.05616,-1.33272,-0.1224L20.088,4.65048c-0.34488,-0.0648,-0.94896,-0.1224,-1.33344,-0.1224L11.808,4.52808c-0.3816,0,-0.9792,0.0576,-1.332,0.1224l-0.072,0.01512c-0.3456,0.06552,-0.9432,0.1224,-1.332,0.1224l-0.3168,0l-1.0008,0l-0.3096,0c-0.3816,0,-0.6984,0.29376,-0.6984,0.64512l0,0.24696L6.7464,5.8392l0,0.1728c0,0.36,0.3168,0.64512,0.6984,0.64512l1.62,0c0.3816,0,0.9792,-0.1224,1.332,-0.26712l0.072,-0.02808c0.3456,-0.14112,0.9504,-0.26496,1.332,-0.26496l6.94656,0c0.37944,0,0.97704,0.12384,1.33416,0.26568l0.07416,0.02808c0.34488,0.14472,0.94464,0.26712,1.33344,0.26712l2.2248,0c0.38088,0,0.69912,-0.2952,0.69912,-0.64512L24.413,5.472L24.413,4.49928L24.413,2.65536C24.1358,2.76336,23.711,3.06576,23.711,4.0896z"/>
 <rect xmlns="http://www.w3.org/2000/svg" opacity="0.4" id="ShadowExtra" x="22.019" width="0.70272" y="3.48336" height="3.15288"/>
 <path xmlns="http://www.w3.org/2000/svg" opacity="0.25" id="ReflexRight" fill="#FFFFFF" d="M19.751,1.08576c0.22968,0,0.49104,-0.1008,0.6624,-0.1728c0.2016,-0.0792,0.57672,-0.144,0.96624,-0.144l1.46088,0c0.22464,0,0.22464,0.2448,0.22464,0.3744c0,0.1296,-0.01512,0.3816,-0.22464,0.3816l-3.06,0c-0.10728,0,-0.2304,-0.1152,-0.2304,-0.22392C19.5566,1.21536,19.6286,1.08576,19.751,1.08576z"/>
 <circle xmlns="http://www.w3.org/2000/svg" opacity="0.35" r="0.432" id="ReflexLeft" cx="6.99984" fill="#FFFFFF" cy="1.13616"/>
 <rect xmlns="http://www.w3.org/2000/svg" opacity="0.5" id="Reflex_gold" x="22.019" fill="#FFFF33" width="0.70272" y="0.42336" height="1.62"/>
 <rect xmlns="http://www.w3.org/2000/svg" opacity="0.5" id="Reflex_extra" x="22.019" fill="#FFFFFF" width="0.70272" y="0.78336" height="0.7488"/>
</g>
</g></g></g><g partID='62390'><g transform='translate(247.871,50.224)' ><g id="breadboard" xmlns="http://www.w3.org/2000/svg">
<rect xmlns="http://www.w3.org/2000/svg" fill="#404040" width="14.4" height="7.2"/>
<rect id="connector0pin" x="2.20843" xmlns="http://www.w3.org/2000/svg" fill="none" width="2.78312" y="2.20843" height="2.78312"/>
<g id="connector0terminal" x="2.51834" xmlns="http://www.w3.org/2000/svg" fill="none" width="2.15829" y="2.47054" height="2.25658"/>
<rect x="2.20843" xmlns="http://www.w3.org/2000/svg" width="2.78312" y="2.20843" height="2.78312"/>
<polygon xmlns="http://www.w3.org/2000/svg" fill="#2A2A29" points="1.18445,1.18445,2.20843,2.20843,4.99156,2.20843,6.01654,1.18445"/>
<polygon xmlns="http://www.w3.org/2000/svg" fill="#474747" points="6.01654,1.18445,4.99156,2.20843,4.99156,4.99156,6.01654,6.01654"/>
<polygon xmlns="http://www.w3.org/2000/svg" fill="#595959" points="6.01654,6.01654,4.99156,4.99156,2.20843,4.99156,1.18445,6.01654"/>
<polygon xmlns="http://www.w3.org/2000/svg" fill="#373737" points="1.18445,6.01654,2.20843,4.99156,2.20843,2.20843,1.18445,1.18445"/>
<rect id="connector1pin" x="9.40846" xmlns="http://www.w3.org/2000/svg" fill="none" width="2.78312" y="2.20843" height="2.78312"/>
<g id="connector1terminal" x="9.71834" xmlns="http://www.w3.org/2000/svg" fill="none" width="2.15829" y="2.47054" height="2.25658"/>
<rect x="9.40846" xmlns="http://www.w3.org/2000/svg" width="2.78312" y="2.20843" height="2.78312"/>
<polygon xmlns="http://www.w3.org/2000/svg" fill="#2A2A29" points="8.38447,1.18445,9.40846,2.20843,12.1915,2.20843,13.2165,1.18445"/>
<polygon xmlns="http://www.w3.org/2000/svg" fill="#474747" points="13.2165,1.18445,12.1915,2.20843,12.1915,4.99156,13.2165,6.01654"/>
<polygon xmlns="http://www.w3.org/2000/svg" fill="#595959" points="13.2165,6.01654,12.1915,4.99156,9.40846,4.99156,8.38447,6.01654"/>
<polygon xmlns="http://www.w3.org/2000/svg" fill="#373737" points="8.38447,6.01654,9.40846,4.99156,9.40846,2.20843,8.38447,1.18445"/>
</g>
</g></g><g partID='62680'><g transform='translate(211.871,50.224)' ><g id="breadboard" xmlns="http://www.w3.org/2000/svg">
<rect xmlns="http://www.w3.org/2000/svg" fill="#404040" width="14.4" height="7.2"/>
<rect id="connector0pin" x="2.20843" xmlns="http://www.w3.org/2000/svg" fill="none" width="2.78312" y="2.20843" height="2.78312"/>
<g id="connector0terminal" x="2.51834" xmlns="http://www.w3.org/2000/svg" fill="none" width="2.15829" y="2.47054" height="2.25658"/>
<rect x="2.20843" xmlns="http://www.w3.org/2000/svg" width="2.78312" y="2.20843" height="2.78312"/>
<polygon xmlns="http://www.w3.org/2000/svg" fill="#2A2A29" points="1.18445,1.18445,2.20843,2.20843,4.99156,2.20843,6.01654,1.18445"/>
<polygon xmlns="http://www.w3.org/2000/svg" fill="#474747" points="6.01654,1.18445,4.99156,2.20843,4.99156,4.99156,6.01654,6.01654"/>
<polygon xmlns="http://www.w3.org/2000/svg" fill="#595959" points="6.01654,6.01654,4.99156,4.99156,2.20843,4.99156,1.18445,6.01654"/>
<polygon xmlns="http://www.w3.org/2000/svg" fill="#373737" points="1.18445,6.01654,2.20843,4.99156,2.20843,2.20843,1.18445,1.18445"/>
<rect id="connector1pin" x="9.40846" xmlns="http://www.w3.org/2000/svg" fill="none" width="2.78312" y="2.20843" height="2.78312"/>
<g id="connector1terminal" x="9.71834" xmlns="http://www.w3.org/2000/svg" fill="none" width="2.15829" y="2.47054" height="2.25658"/>
<rect x="9.40846" xmlns="http://www.w3.org/2000/svg" width="2.78312" y="2.20843" height="2.78312"/>
<polygon xmlns="http://www.w3.org/2000/svg" fill="#2A2A29" points="8.38447,1.18445,9.40846,2.20843,12.1915,2.20843,13.2165,1.18445"/>
<polygon xmlns="http://www.w3.org/2000/svg" fill="#474747" points="13.2165,1.18445,12.1915,2.20843,12.1915,4.99156,13.2165,6.01654"/>
<polygon xmlns="http://www.w3.org/2000/svg" fill="#595959" points="13.2165,6.01654,12.1915,4.99156,9.40846,4.99156,8.38447,6.01654"/>
<polygon xmlns="http://www.w3.org/2000/svg" fill="#373737" points="8.38447,6.01654,9.40846,4.99156,9.40846,2.20843,8.38447,1.18445"/>
</g>
</g></g><path stroke='#8c8c8c' stroke-width='2.15136' stroke-linecap='round' stroke-linejoin='round' fill='none' d='M258.669,29.2068L258.669,53.8229' />
<path stroke='#8c8c8c' stroke-width='2.15136' stroke-linecap='round' stroke-linejoin='round' fill='none' d='M251.467,29.2068L251.467,53.8229' />
<g partID='62200'><g transform='translate(246.94,2.27374e-14)' ><g xmlns="http://www.w3.org/2000/svg" id="breadboard">
 <rect xmlns="http://www.w3.org/2000/svg" id="connector0pin" x="3.45096" fill="none" width="2.15208" y="25.421" height="0.72"/>
 <rect xmlns="http://www.w3.org/2000/svg" id="connector1pin" x="10.651" fill="none" width="2.15424" y="25.421" height="0.72"/>
 <g xmlns="http://www.w3.org/2000/svg" stroke="#8C8C8C" id="connector0leg" x1="6.287" x2="6.287" y1="40.565" stroke-linecap="round" fill="none" stroke-width="2.15136" y2="74.754"/>
 <g xmlns="http://www.w3.org/2000/svg" stroke="#8C8C8C" id="connector1leg" x1="16.29" x2="16.29" y1="40.565" stroke-linecap="round" fill="none" stroke-width="2.15136" y2="74.754"/>
 <rect xmlns="http://www.w3.org/2000/svg" x="3.45096" fill="#8C8C8C" width="2.15136" y="19.3795" height="9.82728"/>
 <path xmlns="http://www.w3.org/2000/svg" fill="#8C8C8C" d="M12.8045,29.2068c0,-1.1736,-1.06488,-2.1024,-2.088,-2.9916c-0.41616,-0.3672,-1.19952,-1.00152,-1.19952,-1.42488l0,-5.47056l-2.16144,0l0,5.78016c0,1.0584,0.94752,1.87848,1.94616,2.74824c0.44424,0.37584,1.34856,1.24992,1.34856,1.76976"/>
 <g xmlns="http://www.w3.org/2000/svg" id="g12">
  <path xmlns="http://www.w3.org/2000/svg" opacity="0.3" id="color_path14" fill="#e60000" d="M14.1732,13.001L14.1732,7.0884C14.1732,3.1752,11.0052,0,7.08768,0C3.1752,0,0,3.16944,0,7.0884l0,13.649c1.47384,1.65096,4.0968,2.75256,7.08768,2.75256c4.61952,0,8.36856,-2.61792,8.36856,-5.85936l0,-1.52352C15.4555,14.9645,14.9818,13.9032,14.1732,13.001z"/>
  <path xmlns="http://www.w3.org/2000/svg" opacity="0.5" id="path16" fill="#E6E6E6" d="M14.1732,13.001L14.1732,7.0884C14.1732,3.1752,11.0052,0,7.08768,0C3.1752,0,0,3.16944,0,7.0884l0,13.649c1.47384,1.65096,4.0968,2.75256,7.08768,2.75256c4.61952,0,8.36856,-2.61792,8.36856,-5.85936l0,-1.52352C15.4555,14.9645,14.9818,13.9032,14.1732,13.001z"/>
  <path xmlns="http://www.w3.org/2000/svg" opacity="0.9" id="path18" fill="#D1D1D1" d="M14.1732,13.001l0,3.10536c0,2.73888,-3.16584,4.96512,-7.08552,4.96512C3.1752,21.0715,0,18.8525,0,16.1064l0,3.10536L0,20.736c1.47384,1.65168,4.0968,2.75256,7.08768,2.75256c4.61952,0,8.36856,-2.61792,8.36856,-5.85864L15.4562,16.1064C15.4555,14.9645,14.9818,13.9032,14.1732,13.001z"/>
  <path xmlns="http://www.w3.org/2000/svg" opacity="0.7" id="color_path20" fill="#e60000" d="M14.1732,13.001l0,3.10536c0,2.73888,-3.16584,4.96512,-7.08552,4.96512C3.1752,21.0715,0,18.8525,0,16.1064l0,3.10536L0,20.736c1.47384,1.65168,4.0968,2.75256,7.08768,2.75256c4.61952,0,8.36856,-2.61792,8.36856,-5.85864L15.4562,16.1064C15.4555,14.9645,14.9818,13.9032,14.1732,13.001z"/>
  <path xmlns="http://www.w3.org/2000/svg" opacity="0.25" id="color_path22" fill="#e60000" d="M14.1732,13.001l0,3.10536c0,2.73888,-3.16584,4.96512,-7.08552,4.96512C3.1752,21.0715,0,18.8525,0,16.1064l0,3.10536c1.47384,1.65024,4.0968,2.75256,7.08768,2.75256c4.61952,0,8.36856,-2.61792,8.36856,-5.85864C15.4555,14.9645,14.9818,13.9032,14.1732,13.001z"/>
  <ellipse xmlns="http://www.w3.org/2000/svg" opacity="0.25" id="ellipse24" cx="7.08768" ry="4.9608" fill="#E6E6E6" cy="16.1064" rx="7.08696"/>
  <ellipse xmlns="http://www.w3.org/2000/svg" opacity="0.25" id="color_ellipse26" cx="7.08768" ry="4.9608" fill="#e60000" cy="16.1064" rx="7.08696"/>
  <polygon xmlns="http://www.w3.org/2000/svg" id="polygon28" fill="#666666" points="2.2032,9.648,2.2032,16.1071,3.19608,16.1071,3.19608,13.0946,6.0156,13.0946,10.0123,8.80488,3.40704,8.80488"/>
  <polygon xmlns="http://www.w3.org/2000/svg" id="polygon30" fill="#666666" points="10.7784,8.52408,11.2147,9.03384,7.41168,13.0946,11.0599,13.0946,11.0599,16.1071,11.9736,16.1071,11.9736,8.52408"/>
  <path xmlns="http://www.w3.org/2000/svg" opacity="0.65" id="color_path32" fill="#e60000" d="M14.1732,13.001L14.1732,7.0884C14.1732,3.1752,11.0052,0,7.08768,0C3.1752,0,0,3.16944,0,7.0884l0,13.649c1.47384,1.65096,4.0968,2.75256,7.08768,2.75256c4.61952,0,8.36856,-2.61792,8.36856,-5.85936l0,-1.52352C15.4555,14.9645,14.9818,13.9032,14.1732,13.001z"/>
  <path xmlns="http://www.w3.org/2000/svg" opacity="0.5" id="path34" fill="#FFFFFF" d="M10.3882,3.75408l1.4364,-0.2736c-0.84168,-1.13184,-2.08224,-1.95768,-3.54168,-2.23848l0.25416,1.08072C9.30096,2.59344,9.94392,3.1032,10.3882,3.75408z"/>
  <path xmlns="http://www.w3.org/2000/svg" opacity="0.5" id="path36" fill="#FFFFFF" d="M0.76824,19.926l0,1.51992c0.64872,0.5292,1.43352,0.97632,2.3076,1.31688l0,-1.52496C2.19744,20.9016,1.41912,20.4559,0.76824,19.926z"/>
  <path xmlns="http://www.w3.org/2000/svg" opacity="0.5" id="path38" fill="#FFFFFF" d="M11.0729,20.2097c-0.2556,0.1224,-0.52992,0.22968,-0.80568,0.32976c-0.05832,0.01944,-0.11736,0.04032,-0.17784,0.05832c-0.56376,0.17928,-1.16136,0.31896,-1.79496,0.39456c-0.07488,0.00936,-0.1512,0.01872,-0.22464,0.01944c-0.3204,0.03024,-0.64368,0.05832,-0.97056,0.05832c-0.14832,0,-0.30744,-0.01512,-0.4716,-0.02376c-1.20024,-0.05688,-2.33064,-0.31464,-3.2976,-0.73944L3.33,11.9174L3.33,7.092c0,-1.47096,0.84816,-2.72952,2.0736,-3.34944L5.38128,3.68928l-1.24776,-1.512c-1.66968,1.00296,-2.79,2.8224,-2.79,4.91184l0,11.9052c-0.04968,-0.04968,-0.30816,-0.30888,-0.48024,-0.52992l-0.30744,0.6876c1.40112,1.48176,3.8088,2.46168,6.54264,2.46168c1.67976,0,3.23712,-0.37368,4.51152,-1.00224l-0.52704,-0.40896C11.0729,20.2097,11.0729,20.2097,11.0729,20.2097z"/>
 </g>
</g>
</g></g><path stroke='#ff0000' stroke-width='3' stroke-linecap='round' stroke-linejoin='round' fill='none' d='M95.269,255.443L100.269,255.443' />
<path stroke='#000000' stroke-width='3' stroke-linecap='round' stroke-linejoin='round' fill='none' d='M95.269,262.623L100.269,262.623' />
<g partID='66230'><g transform='translate(0,244.973)' ><g  id="breadboard">
 <rect  id="connector0pin" x="95" width="1.256" fill="none" y="16.158" height="2.998"/>
 <rect  id="connector1pin" x="95" width="1.256" fill="none" y="8.95799" height="3"/>
 <g  stroke="#000000" id="connector0leg" x1="95.269" x2="100.269" y1="17.65" stroke-linecap="round" fill="none" stroke-width="3" y2="17.65"/>
 <g  stroke="#FF0000" id="connector1leg" x1="95.269" x2="100.269" y1="10.47" stroke-linecap="round" fill="none" stroke-width="3" y2="10.47"/>
 <g >
  <g >
   <path  fill="#939393" d="M9.572,13.877l14.457,0c0.312,0,0.566,-0.255,0.566,-0.566999L24.595,5.09099c0,-0.312,-0.255,-0.566999,-0.566,-0.566999l-7.229,0L9.572,4.52399c-0.312,0,-0.566,0.255,-0.566,0.566999l0,8.21899C9.006,13.623,9.261,13.877,9.572,13.877zM9.876,5.18799c0,-0.304,0.248,-0.551999,0.552,-0.551999l6.373,0l6.373,0c0.304,0,0.552,0.248,0.552,0.551999l0,8.02499c0,0.304,-0.248,0.551999,-0.552,0.551999L10.428,13.765c-0.304,0,-0.552,-0.248,-0.552,-0.551999L9.876,5.18799z"/>
   <path  fill="#B2B2B2" d="M10.428,13.765l6.373,0l6.373,0c0.304,0,0.552,-0.248,0.552,-0.551999L23.726,5.18799c0,-0.304,-0.248,-0.551999,-0.552,-0.551999l-6.373,0l-6.373,0c-0.304,0,-0.552,0.248,-0.552,0.551999l0,8.02499C9.876,13.517,10.124,13.765,10.428,13.765z"/>
   <path  fill="#E6E6E6" d="M11.673,13.676l5.128,0l5.128,0c0.28,0,0.51,-0.229,0.51,-0.509999l0,-7.61999c0,-0.281,-0.229,-0.509999,-0.51,-0.509999l-3.981,0c0.109,0.0939999,0.186,0.232,0.186,0.395999l0,6.86499c0,0.281,-0.21,0.509999,-0.466,0.509999l-0.866,0l-2.474,0c-0.256,0,-0.466,-0.229,-0.466,-0.509999L13.862,5.43299c0,-0.164,0.076,-0.303,0.186,-0.395999l-2.374,0c-0.28,0,-0.51,0.229,-0.51,0.509999l0,7.61999C11.163,13.448,11.393,13.676,11.673,13.676z"/>
   <path  opacity="0.9" fill="#FFFFFF" d="M19.241,5.75899c0,-0.299,-0.199,-0.541999,-0.442,-0.541999l2.173,0c0.244,0,0.443,0.243,0.443,0.541999l0,7.27699c0,0.299,-0.199,0.541999,-0.443,0.541999l-2.173,0c0.243,0,0.442,-0.243,0.442,-0.541999L19.241,5.75899z"/>
  </g>
  <rect  opacity="0.1" x="9.017" width="15.547" y="4.56399" height="1.547"/>
 </g>
 <g >
  <path  fill="#919191" d="M27.12,7.77799c-0.384,-0.017,-1.126,0.672999,-1.126,0.672999s-0.365,-0.742999,-1.012,-0.791999c-2.887,-0.216,-4.328,-0.119,-7.214,-0.119c-0.39,0,-0.813,-0.014,-0.996,0.490999C16.592,7.52599,16.17,7.53999,15.779,7.53999c-2.945,0,-4.413,-0.0859999,-7.36,0.137C7.704,7.72999,7.402,8.46699,7.402,8.46699S6.98,7.74899,6.55,7.76799c-0.519,0.00999998,-1.007,-0.029,-1.046,0.417999c-0.152,1.734,-0.295,2.528,-0.371,4.08299c-0.065,1.324,0.391,1.901,0.391,3.37799c0,1.017,0.904,2.17,1.673,2.17c2.716,0,4.074,-0.0619999,6.79,0.143c1.206,0.0909999,2.451,-0.142,2.786,-1.229c0.336,1.088,1.585,1.323,2.791,1.232c2.715,-0.204,4.072,-0.146,6.788,-0.146c0.768,0,1.538,-1.234,1.538,-2.171c0,0,0.683,-2.106,0.574,-3.67499S27.908,8.16999,27.908,8.16999C27.854,7.53099,27.305,7.78599,27.12,7.77799z"/>
  <g >
   <path  fill="#F4F4F4" d="M5.615,10.111c0.849,-0.252,1.446,-0.491999,1.446,-0.491999c-0.174,1.797,-0.276,2.646,0.001,4.16299c-0.52,-0.0919999,-1.006,-0.175,-1.477,-0.25C5.308,12.232,5.519,11.617,5.615,10.111z"/>
   <path  fill="#B7B7B7" d="M5.865,8.17699c0.747,0.0389999,1.273,0.641999,1.196,1.441c0,0,-0.598,0.24,-1.446,0.491999C5.665,9.33699,5.797,8.95099,5.865,8.17699z"/>
   <path  fill="#999999" d="M6.958,12.878c0.015,0.598999,0.095,0.821999,0.188,1.341c0.121,0.679999,-0.505,1.354,-1.258,1.407c0,-0.925999,-0.131,-1.295,-0.302,-2.095C6.145,13.532,6.971,13.42,6.958,12.878z"/>
  </g>
  <g >
   <path  fill="#F4F4F4" d="M7.822,9.56798c0.062,-0.834999,0.548,-1.543,1.064,-1.58c2.619,-0.189,3.907,-0.101,6.508,-0.101c0.515,0,0.932,0.674999,0.932,1.51c0,0,-0.187,1.416,-0.187,2.246s0.187,2.157,0.187,2.157c0,1.239,-0.417,2.104,-0.932,2.075c-2.601,-0.147,-3.902,-0.24,-6.503,-0.24c-0.513,0,-0.903,-0.706999,-1.001,-1.416C7.657,12.519,7.672,11.573,7.822,9.56798z"/>
   <g >
    <path  fill="#B7B7B7" d="M8.887,7.98799c2.619,-0.189,3.907,-0.101,6.508,-0.101c0.515,0,0.932,0.674999,0.932,1.51c0,0,-2.748,0.12,-4.409,0.12c-1.786,0,-4.095,0.0509999,-4.095,0.0509999C7.885,8.73299,8.37,8.02499,8.887,7.98799z"/>
   </g>
   <g >
    <path  fill="#999999" d="M8.892,15.635c2.601,0,3.902,0.0929999,6.503,0.24c0.515,0.029,0.932,-0.640999,0.932,-1.472c0,-0.245,0,-0.367999,0,-0.612999c-1.22,-0.395999,-2.746,-0.641999,-4.407,-0.642999c-1.797,-0.000999998,-3.009,0.598999,-4.171,-0.354999c-0.002,0.644999,0.067,0.878999,0.143,1.427C7.988,14.928,8.379,15.635,8.892,15.635z"/>
   </g>
  </g>
  <g >
   <path  fill="#F4F4F4" d="M27.931,10.108c-0.851,-0.254,-1.449,-0.493999,-1.449,-0.493999c0.171,1.797,0.272,2.65,0,4.16799c0.52,-0.0919999,1.004,-0.175,1.476,-0.25C28.232,12.232,28.028,11.614,27.931,10.108z"/>
   <path  fill="#B7B7B7" d="M27.683,8.17399c-0.747,0.0369999,-1.277,0.639999,-1.201,1.439c0,0,0.599,0.24,1.449,0.493999C27.881,9.33399,27.751,8.94799,27.683,8.17399z"/>
   <path  fill="#999999" d="M26.584,12.547c0.006,0.714999,-0.072,1.037,-0.184,1.672c-0.119,0.679999,0.506,1.354,1.259,1.407c0,-0.925999,0.129,-1.295,0.298,-2.095C27.535,13.532,26.589,13.198,26.584,12.547z"/>
  </g>
  <g >
   <path  fill="#F4F4F4" d="M25.722,9.56198c-0.062,-0.834999,-0.546,-1.541,-1.062,-1.578c-2.617,-0.187,-3.907,-0.0969998,-6.507,-0.0969998c-0.515,0,-0.928,0.674999,-0.928,1.51c0,0,0.169,1.522,0.169,2.435s-0.169,1.968,-0.169,1.968c0,0.831999,0.413,2.108,0.928,2.08c2.6,-0.144,3.901,-0.244,6.501,-0.244c0.513,0,0.904,-0.706999,0.999,-1.416C25.882,12.519,25.868,11.567,25.722,9.56198z"/>
   <g >
    <path  fill="#B7B7B7" d="M24.66,7.98399c-2.617,-0.187,-3.907,-0.0969998,-6.507,-0.0969998c-0.515,0,-0.928,0.674999,-0.928,1.51c0,0,2.744,0.12,4.405,0.12c1.786,0,4.091,0.0449999,4.091,0.0449999C25.66,8.72699,25.176,8.02099,24.66,7.98399z"/>
   </g>
   <g >
    <path  fill="#999999" d="M24.654,15.635c-2.6,0,-3.901,0.101,-6.501,0.244c-0.515,0.028,-0.928,-0.641999,-0.928,-1.474c0,-0.245,0,-0.367999,0,-0.613999c1.219,-0.394999,2.745,-0.641999,4.405,-0.643999c1.796,-0.002,3.2,0.333999,4.164,-0.566999c0.001,0.710999,-0.059,1.019,-0.142,1.639C25.559,14.928,25.167,15.635,24.654,15.635z"/>
   </g>
  </g>
 </g>
 <g >
  <path  fill="#939393" d="M60.123,7.34199L45.666,7.34199c-0.312,0,-0.566,0.255,-0.566,0.566999l0,8.21899c0,0.312,0.255,0.566999,0.566,0.566999l7.229,0l7.229,0c0.312,0,0.566,-0.255,0.566,-0.566999L60.69,7.90999C60.689,7.59699,60.435,7.34199,60.123,7.34199zM59.819,16.032c0,0.304,-0.248,0.551999,-0.552,0.551999l-6.373,0l-6.373,0c-0.304,0,-0.552,-0.248,-0.552,-0.551999L45.969,8.00599c0,-0.304,0.248,-0.551999,0.552,-0.551999l12.746,0c0.304,0,0.552,0.248,0.552,0.551999L59.819,16.032z"/>
  <path  fill="#B2B2B2" d="M59.268,7.45499l-6.373,0l-6.373,0c-0.304,0,-0.552,0.248,-0.552,0.551999l0,8.02499c0,0.304,0.248,0.551999,0.552,0.551999l6.373,0l6.373,0c0.304,0,0.552,-0.248,0.552,-0.551999L59.82,8.00599C59.819,7.70299,59.571,7.45499,59.268,7.45499z"/>
  <path  fill="#E6E6E6" d="M58.022,7.54299l-5.128,0l-5.128,0c-0.28,0,-0.51,0.229,-0.51,0.509999l0,7.61999c0,0.281,0.229,0.509999,0.51,0.509999l3.981,0c-0.109,-0.0939999,-0.186,-0.232,-0.186,-0.395999L51.561,8.92099c0,-0.281,0.21,-0.509999,0.466,-0.509999l0.866,0l2.474,0c0.256,0,0.466,0.229,0.466,0.509999l0,6.86499c0,0.164,-0.076,0.303,-0.186,0.395999l2.374,0c0.28,0,0.51,-0.229,0.51,-0.509999l0,-7.61999C58.532,7.77199,58.303,7.54299,58.022,7.54299z"/>
  <path  opacity="0.9" fill="#FFFFFF" d="M50.454,15.46c0,0.299,0.199,0.541999,0.442,0.541999l-2.173,0c-0.244,0,-0.443,-0.243,-0.443,-0.541999L48.28,8.18299c0,-0.299,0.199,-0.541999,0.443,-0.541999l2.173,0c-0.243,0,-0.442,0.243,-0.442,0.541999L50.454,15.46z"/>
 </g>
 <rect  x="45.132" width="15.547" fill="none" y="15.109" height="1.547"/>
 <rect  opacity="0.1" x="5.382" width="22.592" y="15.109" height="1.547"/>
 <path  fill="#353535" d="M5.67,151.871l0.06,0c-0.099,0,-0.195,-0.00699999,-0.293,-0.00999998C5.515,151.864,5.591,151.871,5.67,151.871z"/>
 <path  fill="#353535" d="M5.111,151.847c-0.021,-0.000999998,-0.041,-0.00399999,-0.062,-0.00599999C5.07,151.843,5.091,151.846,5.111,151.847z"/>
 <path  opacity="0.35" d="M5.437,151.861c-0.108,-0.00399999,-0.219,-0.00499999,-0.325,-0.014C5.218,151.855,5.327,151.857,5.437,151.861z"/>
 <path  fill="#353535" d="M70.727,148.251c-0.606,0.895999,-2.843,1.566,-5.498,1.566L5.729,149.817c-3.117,0,-5.666,-0.923999,-5.666,-2.052l0,0.124c0.36,2.076,2.42,3.72099,4.986,3.95099c0.021,0.002,0.041,0.00499999,0.062,0.00599999c0.106,0.00899999,0.217,0.00999998,0.325,0.014c0.098,0.003,0.194,0.00999998,0.293,0.00999998l59.469,0C67.893,151.871,70.159,150.315,70.727,148.251z"/>
 <path  opacity="0.35" d="M70.727,148.251c-0.606,0.895999,-2.843,1.566,-5.498,1.566L5.729,149.817c-3.117,0,-5.666,-0.923999,-5.666,-2.052l0,0.124c0.36,2.076,2.42,3.72099,4.986,3.95099c0.021,0.002,0.041,0.00499999,0.062,0.00599999c0.106,0.00899999,0.217,0.00999998,0.325,0.014c0.098,0.003,0.194,0.00999998,0.293,0.00999998l59.469,0C67.893,151.871,70.159,150.315,70.727,148.251z"/>
 <g >
  <g >
   <path  fill="#353535" d="M66.331,15.798c1.985,0,4.536,1.702,4.536,3.78299l0,127.662c0,2.545,-2.551,4.62699,-5.669,4.62699L5.67,151.87c-3.118,0,-5.669,-2.082,-5.669,-4.62699L0.001,19.582c0,-2.081,2.551,-3.78299,6.802,-3.78299L66.331,15.799z"/>
   <path  fill="#D18D52" d="M70.867,49.3939L0.001,49.3939L0.001,19.582c0,-2.08,2.551,-3.78299,6.802,-3.78299l59.528,0c1.985,0,4.536,1.703,4.536,3.78299L70.867,49.3939z"/>
  </g>
  <path  opacity="0.15" fill="#FFFFFF" d="M69.604,147.766c0,0.574999,-1.594,1.067,-3.783,1.237L65.821,17.89c2.189,0.139,3.783,0.540999,3.783,1.012L69.604,147.766z"/>
  <path  opacity="0.15" fill="#FFFFFF" d="M1.145,147.766c0,0.574999,1.594,1.067,3.783,1.237L4.928,17.89c-2.189,0.139,-3.783,0.540999,-3.783,1.012L1.145,147.766z"/>
  <path  opacity="0.35" fill="#FFFFFF" d="M1.145,18.89c0,-0.585999,2.464,-1.065,5.477,-1.065l57.507,0c3.013,0,5.477,0.478999,5.477,1.065l0,-0.218c0,-1.052,-2.464,-1.913,-5.477,-1.913L6.621,16.759c-3.013,0,-5.477,0.860999,-5.477,1.913L1.144,18.89z"/>
  <g  opacity="0.2">
   <path  d="M69.604,18.521c0,0,0,128.894,0,130.529c0.628,-0.297,0.628,-0.297,1,-0.645999c0,-0.624999,0,-126.22,0,-126.681C70.604,20.658,69.897,19.162,69.604,18.521z"/>
  </g>
  <g  opacity="0.2">
   <path  d="M1.145,18.521c0,0,0,128.894,0,130.529c-0.628,-0.297,-0.628,-0.297,-1,-0.645999c0,-0.624999,0,-126.22,0,-126.681C0.145,20.658,0.852,19.162,1.145,18.521z"/>
  </g>
 </g>
 <path  stroke="#000000" fill="none" stroke-width="3" d="M67.713,4.41499c14.469,0,13.856,13.249,27.556,13.249"/>
 <path  stroke="#FF0000" fill="none" stroke-width="3" d="M67.713,4.41699c17.259,0,16.104,6.03499,27.556,6.03499"/>
 <g >
  <path  fill="#919191" d="M42.569,14.396c0.384,0.017,1.126,-0.672999,1.126,-0.672999s0.365,0.742999,1.012,0.791999c2.887,0.216,4.328,0.119,7.214,0.119c0.39,0,0.813,0.014,0.996,-0.490999c0.181,0.504999,0.603,0.490999,0.993,0.490999c2.945,0,4.413,0.0859999,7.36,-0.137c0.715,-0.0539999,1.017,-0.790999,1.017,-0.790999s0.422,0.718999,0.853,0.698999c0.519,-0.00999998,1.007,0.029,1.046,-0.417999c0.152,-1.734,0.295,-2.528,0.371,-4.08299c0.065,-1.324,-0.391,-1.901,-0.391,-3.37799c0,-1.017,-0.904,-2.17,-1.673,-2.17c-2.716,0,-4.074,0.0619999,-6.79,-0.143c-1.206,-0.0909999,-2.451,0.142,-2.786,1.229c-0.336,-1.088,-1.585,-1.323,-2.791,-1.232c-2.715,0.204,-4.072,0.146,-6.788,0.146c-0.768,0,-1.538,1.234,-1.538,2.171c0,0,-0.683,2.106,-0.574,3.67499s0.556,3.80199,0.556,3.80199C41.836,14.643,42.385,14.388,42.569,14.396z"/>
  <g >
   <path  fill="#F4F4F4" d="M64.074,12.063c-0.849,0.252,-1.446,0.491999,-1.446,0.491999c0.174,-1.797,0.276,-2.646,-0.001,-4.16299c0.52,0.0919999,1.006,0.175,1.477,0.25C64.382,9.94198,64.171,10.557,64.074,12.063z"/>
   <path  fill="#B7B7B7" d="M63.824,13.997c-0.747,-0.0389999,-1.273,-0.641999,-1.196,-1.441c0,0,0.598,-0.24,1.446,-0.491999C64.024,12.836,63.893,13.223,63.824,13.997z"/>
   <path  fill="#999999" d="M62.731,9.29499c-0.015,-0.598999,-0.095,-0.821999,-0.188,-1.341c-0.121,-0.679999,0.505,-1.354,1.258,-1.407c0,0.925999,0.131,1.295,0.302,2.095C63.545,8.64199,62.719,8.75299,62.731,9.29499z"/>
  </g>
  <g >
   <path  fill="#F4F4F4" d="M61.867,12.606c-0.062,0.834999,-0.548,1.543,-1.064,1.58c-2.619,0.189,-3.907,0.101,-6.508,0.101c-0.515,0,-0.932,-0.674999,-0.932,-1.51c0,0,0.187,-1.416,0.187,-2.246s-0.187,-2.157,-0.187,-2.157c0,-1.239,0.417,-2.104,0.932,-2.075c2.601,0.147,3.902,0.24,6.503,0.24c0.513,0,0.903,0.706999,1.001,1.416C62.032,9.65498,62.018,10.601,61.867,12.606z"/>
   <g >
    <path  fill="#B7B7B7" d="M60.803,14.186c-2.619,0.189,-3.907,0.101,-6.508,0.101c-0.515,0,-0.932,-0.674999,-0.932,-1.51c0,0,2.748,-0.12,4.409,-0.12c1.786,0,4.095,-0.0509999,4.095,-0.0509999C61.805,13.441,61.319,14.149,60.803,14.186z"/>
   </g>
   <g >
    <path  fill="#999999" d="M60.798,6.53899c-2.601,0,-3.902,-0.0929999,-6.503,-0.24c-0.515,-0.029,-0.932,0.640999,-0.932,1.472c0,0.245,0,0.367999,0,0.612999c1.22,0.395999,2.746,0.641999,4.407,0.642999c1.797,0.000999998,3.009,-0.598999,4.171,0.354999c0.002,-0.644999,-0.067,-0.878999,-0.143,-1.427C61.701,7.24599,61.311,6.53899,60.798,6.53899z"/>
   </g>
  </g>
  <g >
   <path  fill="#F4F4F4" d="M41.759,12.066c0.851,0.254,1.449,0.493999,1.449,0.493999c-0.171,-1.797,-0.272,-2.65,0,-4.16799c-0.52,0.0919999,-1.004,0.175,-1.476,0.25C41.457,9.94198,41.661,10.56,41.759,12.066z"/>
   <path  fill="#B7B7B7" d="M42.007,14c0.747,-0.0369999,1.277,-0.639999,1.201,-1.439c0,0,-0.599,-0.24,-1.449,-0.493999C41.809,12.839,41.938,13.226,42.007,14z"/>
   <path  fill="#999999" d="M43.105,9.62598c-0.006,-0.714999,0.072,-1.037,0.184,-1.672c0.119,-0.679999,-0.506,-1.354,-1.259,-1.407c0,0.925999,-0.129,1.295,-0.298,2.095C42.154,8.64199,43.101,8.97599,43.105,9.62598z"/>
  </g>
  <g >
   <path  fill="#F4F4F4" d="M43.968,12.612c0.062,0.834999,0.546,1.541,1.062,1.578c2.617,0.187,3.907,0.0969998,6.507,0.0969998c0.515,0,0.928,-0.674999,0.928,-1.51c0,0,-0.169,-1.522,-0.169,-2.435s0.169,-1.968,0.169,-1.968c0,-0.831999,-0.413,-2.108,-0.928,-2.08c-2.6,0.144,-3.901,0.244,-6.501,0.244c-0.513,0,-0.904,0.706999,-0.999,1.416C43.808,9.65498,43.821,10.607,43.968,12.612z"/>
   <g >
    <path  fill="#B7B7B7" d="M45.029,14.19c2.617,0.187,3.907,0.0969998,6.507,0.0969998c0.515,0,0.928,-0.674999,0.928,-1.51c0,0,-2.744,-0.12,-4.405,-0.12c-1.786,0,-4.091,-0.0449999,-4.091,-0.0449999C44.029,13.447,44.514,14.153,45.029,14.19z"/>
   </g>
   <g >
    <path  fill="#999999" d="M45.035,6.53899c2.6,0,3.901,-0.101,6.501,-0.244c0.515,-0.028,0.928,0.641999,0.928,1.474c0,0.245,0,0.367999,0,0.613999c-1.219,0.394999,-2.745,0.641999,-4.405,0.643999c-1.796,0.002,-3.2,-0.333999,-4.164,0.566999c-0.001,-0.710999,0.059,-1.019,0.142,-1.639C44.131,7.24599,44.522,6.53899,45.035,6.53899z"/>
   </g>
  </g>
 </g>
 <path  fill="#262626" d="M67.753,6.91699c0,0,0,-3.56299,0,-4.47999C67.753,0.737999,66.587,0,61.496,0L9.354,0C4.263,0,3.097,0.737999,3.097,2.437c0,0.916999,0,4.47999,0,4.47999L67.753,6.91699z"/>
 <path  opacity="0.35" fill="#FFFFFF" d="M62.767,0.565999c3.609,0,4.257,0.860999,4.257,1.913l0,0.218c0,-0.585999,-1.447,-1.065,-4.257,-1.065L8.082,1.632c-2.81,0,-4.257,0.478999,-4.257,1.065L3.825,2.479c0,-1.052,0.647,-1.913,4.257,-1.913L62.767,0.565999z"/>
 <path  opacity="0.15" fill="#FFFFFF" d="M5.586,1.815c-1.152,0.188,-1.761,0.509999,-1.761,0.881999l0,3.81699l1.761,0L5.586,1.815z"/>
 <path  opacity="0.15" fill="#FFFFFF" d="M65.263,1.815c1.152,0.188,1.761,0.509999,1.761,0.881999l0,3.81699l-1.761,0L65.263,1.815z"/>
 <g >
  <g transform="matrix(1, 0, 0, 1, 22.6406, 75.9354)">
   <text  font-size="22" fill="#FFFFFF" font-family="Droid Sans">9</text>
  </g>
  <g transform="matrix(1, 0, 0, 1, 36.5776, 75.9359)">
   <text  font-size="22" fill="#FFFFFF" font-family="Droid Sans">v</text>
  </g>
 </g>
</g>
</g></g><g partID='104240'><g transform='translate(145.42,229.554)' ><g id="breadboard" xmlns="http://www.w3.org/2000/svg">
<g id="connector0terminal" x="4.34376" xmlns="http://www.w3.org/2000/svg" fill="#8C8C8C" width="1.8144" y="25.2756" height="1.18584"/>
<g id="connector1terminal" x="11.543" xmlns="http://www.w3.org/2000/svg" fill="#8C8C8C" width="1.81512" y="25.2756" height="1.18584"/>
<g id="connector2terminal" x="18.7416" xmlns="http://www.w3.org/2000/svg" fill="#8C8C8C" width="1.81512" y="25.2756" height="1.18584"/>
<rect id="connector0pin" x="4.34376" xmlns="http://www.w3.org/2000/svg" fill="#8C8C8C" width="1.8144" y="21.1104" height="5.35536"/>
<rect id="connector1pin" x="11.543" xmlns="http://www.w3.org/2000/svg" fill="#8C8C8C" width="1.81512" y="21.1104" height="5.35536"/>
<rect id="connector2pin" x="18.7416" xmlns="http://www.w3.org/2000/svg" fill="#8C8C8C" width="1.81512" y="21.1104" height="5.35536"/>
<rect id="rect4" x="4.33512" xmlns="http://www.w3.org/2000/svg" fill="#8C8C8C" width="1.8144" y="11.4516" height="14.9652"/>
<rect id="rect6" x="11.5344" xmlns="http://www.w3.org/2000/svg" fill="#8C8C8C" width="1.81512" y="11.4516" height="14.9652"/>
<rect id="rect8" x="18.733" xmlns="http://www.w3.org/2000/svg" fill="#8C8C8C" width="1.81512" y="11.4516" height="14.9652"/>
<polygon id="polygon21" xmlns="http://www.w3.org/2000/svg" fill="#8C8C8C" points="7.76232,18.7553,6.14952,19.4753,4.33584,19.4753,2.72232,18.7553,2.72232,9.9864,7.76232,9.9864"/>
<polygon id="polygon23" xmlns="http://www.w3.org/2000/svg" fill="#8C8C8C" points="14.963,18.7553,13.3481,19.4753,11.5351,19.4753,9.92232,18.7553,9.92232,9.9864,14.963,9.9864"/>
<polygon id="polygon25" xmlns="http://www.w3.org/2000/svg" fill="#8C8C8C" points="22.1616,18.7553,20.5466,19.4753,18.7344,19.4753,17.1216,18.7553,17.1216,9.9864,22.1616,9.9864"/>
<rect id="rect27" x="-0.87696" xmlns="http://www.w3.org/2000/svg" fill="#1A1A1A" width="26.6386" y="3.34512" height="13.2998"/>
<rect id="rect49" x="-0.87696" xmlns="http://www.w3.org/2000/svg" width="26.6386" y="5.94" height="3.34728"/>
<rect id="rect51" x="-0.87696" xmlns="http://www.w3.org/2000/svg" fill="#333333" width="26.6386" y="3.24072" height="4.13856"/>
<rect id="rect49_1_" x="7.29792" xmlns="http://www.w3.org/2000/svg" width="11.2046" y="3.64464" height="3.34728"/>
<rect id="rect27_1_" x="13.5547" xmlns="http://www.w3.org/2000/svg" fill="#1A1A1A" width="4.79808" y="1.59408" height="5.27904"/>
<rect id="rect51_1_" x="13.5547" xmlns="http://www.w3.org/2000/svg" fill="#333333" width="4.79808" y="-0.59976" height="2.19312"/>
</g>
</g></g><path stroke='#8c8c8c' stroke-width='2.15136' stroke-linecap='round' stroke-linejoin='round' fill='none' d='M222.669,29.2068L222.669,53.8229' />
<path stroke='#8c8c8c' stroke-width='2.15136' stroke-linecap='round' stroke-linejoin='round' fill='none' d='M215.467,29.2068L215.467,53.8229' />
<g partID='62230'><g transform='translate(210.94,0)' ><g xmlns="http://www.w3.org/2000/svg" id="breadboard">
 <rect xmlns="http://www.w3.org/2000/svg" id="connector0pin" x="3.45096" fill="none" width="2.15208" y="25.421" height="0.72"/>
 <rect xmlns="http://www.w3.org/2000/svg" id="connector1pin" x="10.651" fill="none" width="2.15424" y="25.421" height="0.72"/>
 <g xmlns="http://www.w3.org/2000/svg" stroke="#8C8C8C" id="connector0leg" x1="6.287" x2="6.287" y1="40.565" stroke-linecap="round" fill="none" stroke-width="2.15136" y2="74.754"/>
 <g xmlns="http://www.w3.org/2000/svg" stroke="#8C8C8C" id="connector1leg" x1="16.29" x2="16.29" y1="40.565" stroke-linecap="round" fill="none" stroke-width="2.15136" y2="74.754"/>
 <rect xmlns="http://www.w3.org/2000/svg" x="3.45096" fill="#8C8C8C" width="2.15136" y="19.3795" height="9.82728"/>
 <path xmlns="http://www.w3.org/2000/svg" fill="#8C8C8C" d="M12.8045,29.2068c0,-1.1736,-1.06488,-2.1024,-2.088,-2.9916c-0.41616,-0.3672,-1.19952,-1.00152,-1.19952,-1.42488l0,-5.47056l-2.16144,0l0,5.78016c0,1.0584,0.94752,1.87848,1.94616,2.74824c0.44424,0.37584,1.34856,1.24992,1.34856,1.76976"/>
 <g xmlns="http://www.w3.org/2000/svg" id="g12">
  <path xmlns="http://www.w3.org/2000/svg" opacity="0.3" id="color_path14" fill="#e60000" d="M14.1732,13.001L14.1732,7.0884C14.1732,3.1752,11.0052,0,7.08768,0C3.1752,0,0,3.16944,0,7.0884l0,13.649c1.47384,1.65096,4.0968,2.75256,7.08768,2.75256c4.61952,0,8.36856,-2.61792,8.36856,-5.85936l0,-1.52352C15.4555,14.9645,14.9818,13.9032,14.1732,13.001z"/>
  <path xmlns="http://www.w3.org/2000/svg" opacity="0.5" id="path16" fill="#E6E6E6" d="M14.1732,13.001L14.1732,7.0884C14.1732,3.1752,11.0052,0,7.08768,0C3.1752,0,0,3.16944,0,7.0884l0,13.649c1.47384,1.65096,4.0968,2.75256,7.08768,2.75256c4.61952,0,8.36856,-2.61792,8.36856,-5.85936l0,-1.52352C15.4555,14.9645,14.9818,13.9032,14.1732,13.001z"/>
  <path xmlns="http://www.w3.org/2000/svg" opacity="0.9" id="path18" fill="#D1D1D1" d="M14.1732,13.001l0,3.10536c0,2.73888,-3.16584,4.96512,-7.08552,4.96512C3.1752,21.0715,0,18.8525,0,16.1064l0,3.10536L0,20.736c1.47384,1.65168,4.0968,2.75256,7.08768,2.75256c4.61952,0,8.36856,-2.61792,8.36856,-5.85864L15.4562,16.1064C15.4555,14.9645,14.9818,13.9032,14.1732,13.001z"/>
  <path xmlns="http://www.w3.org/2000/svg" opacity="0.7" id="color_path20" fill="#e60000" d="M14.1732,13.001l0,3.10536c0,2.73888,-3.16584,4.96512,-7.08552,4.96512C3.1752,21.0715,0,18.8525,0,16.1064l0,3.10536L0,20.736c1.47384,1.65168,4.0968,2.75256,7.08768,2.75256c4.61952,0,8.36856,-2.61792,8.36856,-5.85864L15.4562,16.1064C15.4555,14.9645,14.9818,13.9032,14.1732,13.001z"/>
  <path xmlns="http://www.w3.org/2000/svg" opacity="0.25" id="color_path22" fill="#e60000" d="M14.1732,13.001l0,3.10536c0,2.73888,-3.16584,4.96512,-7.08552,4.96512C3.1752,21.0715,0,18.8525,0,16.1064l0,3.10536c1.47384,1.65024,4.0968,2.75256,7.08768,2.75256c4.61952,0,8.36856,-2.61792,8.36856,-5.85864C15.4555,14.9645,14.9818,13.9032,14.1732,13.001z"/>
  <ellipse xmlns="http://www.w3.org/2000/svg" opacity="0.25" id="ellipse24" cx="7.08768" ry="4.9608" fill="#E6E6E6" cy="16.1064" rx="7.08696"/>
  <ellipse xmlns="http://www.w3.org/2000/svg" opacity="0.25" id="color_ellipse26" cx="7.08768" ry="4.9608" fill="#e60000" cy="16.1064" rx="7.08696"/>
  <polygon xmlns="http://www.w3.org/2000/svg" id="polygon28" fill="#666666" points="2.2032,9.648,2.2032,16.1071,3.19608,16.1071,3.19608,13.0946,6.0156,13.0946,10.0123,8.80488,3.40704,8.80488"/>
  <polygon xmlns="http://www.w3.org/2000/svg" id="polygon30" fill="#666666" points="10.7784,8.52408,11.2147,9.03384,7.41168,13.0946,11.0599,13.0946,11.0599,16.1071,11.9736,16.1071,11.9736,8.52408"/>
  <path xmlns="http://www.w3.org/2000/svg" opacity="0.65" id="color_path32" fill="#e60000" d="M14.1732,13.001L14.1732,7.0884C14.1732,3.1752,11.0052,0,7.08768,0C3.1752,0,0,3.16944,0,7.0884l0,13.649c1.47384,1.65096,4.0968,2.75256,7.08768,2.75256c4.61952,0,8.36856,-2.61792,8.36856,-5.85936l0,-1.52352C15.4555,14.9645,14.9818,13.9032,14.1732,13.001z"/>
  <path xmlns="http://www.w3.org/2000/svg" opacity="0.5" id="path34" fill="#FFFFFF" d="M10.3882,3.75408l1.4364,-0.2736c-0.84168,-1.13184,-2.08224,-1.95768,-3.54168,-2.23848l0.25416,1.08072C9.30096,2.59344,9.94392,3.1032,10.3882,3.75408z"/>
  <path xmlns="http://www.w3.org/2000/svg" opacity="0.5" id="path36" fill="#FFFFFF" d="M0.76824,19.926l0,1.51992c0.64872,0.5292,1.43352,0.97632,2.3076,1.31688l0,-1.52496C2.19744,20.9016,1.41912,20.4559,0.76824,19.926z"/>
  <path xmlns="http://www.w3.org/2000/svg" opacity="0.5" id="path38" fill="#FFFFFF" d="M11.0729,20.2097c-0.2556,0.1224,-0.52992,0.22968,-0.80568,0.32976c-0.05832,0.01944,-0.11736,0.04032,-0.17784,0.05832c-0.56376,0.17928,-1.16136,0.31896,-1.79496,0.39456c-0.07488,0.00936,-0.1512,0.01872,-0.22464,0.01944c-0.3204,0.03024,-0.64368,0.05832,-0.97056,0.05832c-0.14832,0,-0.30744,-0.01512,-0.4716,-0.02376c-1.20024,-0.05688,-2.33064,-0.31464,-3.2976,-0.73944L3.33,11.9174L3.33,7.092c0,-1.47096,0.84816,-2.72952,2.0736,-3.34944L5.38128,3.68928l-1.24776,-1.512c-1.66968,1.00296,-2.79,2.8224,-2.79,4.91184l0,11.9052c-0.04968,-0.04968,-0.30816,-0.30888,-0.48024,-0.52992l-0.30744,0.6876c1.40112,1.48176,3.8088,2.46168,6.54264,2.46168c1.67976,0,3.23712,-0.37368,4.51152,-1.00224l-0.52704,-0.40896C11.0729,20.2097,11.0729,20.2097,11.0729,20.2097z"/>
 </g>
</g>
</g></g><g partID='63020'><line stroke-linecap='round' stroke='#ad6a38' x1='258.669' y1='68.2225' x2='258.669' y2='53.8229' stroke-width='3.2' /><line stroke-linecap='round' stroke='#ef6100' x1='258.669' y1='68.2225' x2='258.669' y2='53.8229' stroke-width='1.6' /></g><g partID='63390'><line stroke-linecap='round' stroke='#7a3a73' x1='222.669' y1='97.0275' x2='208.269' y2='97.0228' stroke-width='3.2' /><line stroke-linecap='round' stroke='#ab58a2' x1='222.669' y1='97.0275' x2='208.269' y2='97.0228' stroke-width='1.6' /></g><g partID='63530'><line stroke-linecap='round' stroke='#ad6a38' x1='258.564' y1='104.376' x2='208.269' y2='104.223' stroke-width='3.2' /><line stroke-linecap='round' stroke='#ef6100' x1='258.564' y1='104.376' x2='208.269' y2='104.223' stroke-width='1.6' /></g><g partID='63460'><line stroke-linecap='round' stroke='#ad6a38' x1='258.669' y1='97.0275' x2='258.564' y2='104.376' stroke-width='3.2' /><line stroke-linecap='round' stroke='#ef6100' x1='258.669' y1='97.0275' x2='258.564' y2='104.376' stroke-width='1.6' /></g><g partID='104330'><line stroke-linecap='round' stroke='#8c0000' x1='100.269' y1='255.443' x2='157.871' y2='255.423' stroke-width='3.2' /><line stroke-linecap='round' stroke='#cc1414' x1='100.269' y1='255.443' x2='157.871' y2='255.423' stroke-width='1.6' /></g><g partID='104470'><line stroke-linecap='round' stroke='#000000' x1='200.997' y1='262.812' x2='201.072' y2='212.223' stroke-width='3.2' /><line stroke-linecap='round' stroke='#404040' x1='200.997' y1='262.812' x2='201.072' y2='212.223' stroke-width='1.6' /></g><g partID='104400'><line stroke-linecap='round' stroke='#000000' x1='100.269' y1='262.623' x2='200.997' y2='262.812' stroke-width='3.2' /><line stroke-linecap='round' stroke='#404040' x1='100.269' y1='262.623' x2='200.997' y2='262.812' stroke-width='1.6' /></g><g partID='104610'><line stroke-linecap='round' stroke='#8c0000' x1='208.309' y1='255.499' x2='165.069' y2='255.423' stroke-width='3.2' /><line stroke-linecap='round' stroke='#cc1414' x1='208.309' y1='255.499' x2='165.069' y2='255.423' stroke-width='1.6' /></g><g partID='104540'><line stroke-linecap='round' stroke='#8c0000' x1='208.27' y1='212.223' x2='208.309' y2='255.499' stroke-width='3.2' /><line stroke-linecap='round' stroke='#cc1414' x1='208.27' y1='212.223' x2='208.309' y2='255.499' stroke-width='1.6' /></g><g partID='105440'><line stroke-linecap='round' stroke='#000000' x1='150.669' y1='89.8229' x2='150.441' y2='147.649' stroke-width='3.2' /><line stroke-linecap='round' stroke='#404040' x1='150.669' y1='89.8229' x2='150.441' y2='147.649' stroke-width='1.6' /></g><g partID='105170'><line stroke-linecap='round' stroke='#000000' x1='208.269' y1='89.8229' x2='150.669' y2='89.8229' stroke-width='3.2' /><line stroke-linecap='round' stroke='#404040' x1='208.269' y1='89.8229' x2='150.669' y2='89.8229' stroke-width='1.6' /></g><g partID='105710'><line stroke-linecap='round' stroke='#7a3a73' x1='208.269' y1='97.0229' x2='157.869' y2='97.0229' stroke-width='3.2' /><line stroke-linecap='round' stroke='#ab58a2' x1='208.269' y1='97.0229' x2='157.869' y2='97.0229' stroke-width='1.6' /></g><g partID='105820'><line stroke-linecap='round' stroke='#7a3a73' x1='157.869' y1='97.0229' x2='157.64' y2='147.649' stroke-width='3.2' /><line stroke-linecap='round' stroke='#ab58a2' x1='157.869' y1='97.0229' x2='157.64' y2='147.649' stroke-width='1.6' /></g><g partID='106040'><line stroke-linecap='round' stroke='#ad6a38' x1='172.269' y1='104.223' x2='172.038' y2='147.649' stroke-width='3.2' /><line stroke-linecap='round' stroke='#ef6100' x1='172.269' y1='104.223' x2='172.038' y2='147.649' stroke-width='1.6' /></g><g partID='105930'><line stroke-linecap='round' stroke='#ad6a38' x1='208.269' y1='104.223' x2='172.269' y2='104.223' stroke-width='3.2' /><line stroke-linecap='round' stroke='#ef6100' x1='208.269' y1='104.223' x2='172.269' y2='104.223' stroke-width='1.6' /></g><g partID='107590'><line stroke-linecap='round' stroke='#000000' x1='251.469' y1='61.0229' x2='251.469' y2='53.8229' stroke-width='3.2' /><line stroke-linecap='round' stroke='#404040' x1='251.469' y1='61.0229' x2='251.469' y2='53.8229' stroke-width='1.6' /></g><g partID='107400'><line stroke-linecap='round' stroke='#000000' x1='208.269' y1='89.8229' x2='208.269' y2='61.0229' stroke-width='3.2' /><line stroke-linecap='round' stroke='#404040' x1='208.269' y1='89.8229' x2='208.269' y2='61.0229' stroke-width='1.6' /></g><g partID='107780'><line stroke-linecap='round' stroke='#000000' x1='208.269' y1='61.0229' x2='251.469' y2='61.0229' stroke-width='3.2' /><line stroke-linecap='round' stroke='#404040' x1='208.269' y1='61.0229' x2='251.469' y2='61.0229' stroke-width='1.6' /></g><g partID='107100'><line stroke-linecap='round' stroke='#000000' x1='215.469' y1='61.0229' x2='215.469' y2='53.8229' stroke-width='3.2' /><line stroke-linecap='round' stroke='#404040' x1='215.469' y1='61.0229' x2='215.469' y2='53.8229' stroke-width='1.6' /></g><g partID='107250'><line stroke-linecap='round' stroke='#000000' x1='208.269' y1='61.0229' x2='215.469' y2='61.0229' stroke-width='3.2' /><line stroke-linecap='round' stroke='#404040' x1='208.269' y1='61.0229' x2='215.469' y2='61.0229' stroke-width='1.6' /></g><g partID='106950'><line stroke-linecap='round' stroke='#000000' x1='208.269' y1='89.8229' x2='208.269' y2='61.0229' stroke-width='3.2' /><line stroke-linecap='round' stroke='#404040' x1='208.269' y1='89.8229' x2='208.269' y2='61.0229' stroke-width='1.6' /></g><g partID='63210'><line stroke-linecap='round' stroke='#7a3a73' x1='222.669' y1='68.2225' x2='222.669' y2='53.8229' stroke-width='3.2' /><line stroke-linecap='round' stroke='#ab58a2' x1='222.669' y1='68.2225' x2='222.669' y2='53.8229' stroke-width='1.6' /></g></svg>